<?xml version="1.0" standalone="no"?>
<!DOCTYPE svg PUBLIC "-//W3C//DTD SVG 20010904//EN"
 "http://www.w3.org/TR/2001/REC-SVG-20010904/DTD/svg10.dtd">
 <svg
 width="1080"
 height="1080"
 viewBox="0 0 1080 1080"
 version="1.0">

<g transform="translate(0.000000,1080.000000) scale(0.100000,-0.100000)"
fill="#000000" stroke="none">
<path d="M5100 10474 c-391 -20 -627 -41 -871 -79 -236 -37 -333 -60 -554
-135 -1268 -431 -2279 -1245 -2920 -2350 -256 -440 -492 -1036 -579 -1462 -64
-314 -86 -542 -93 -969 -13 -831 81 -1429 324 -2063 336 -874 886 -1625 1625
-2219 295 -236 556 -402 923 -587 600 -302 1203 -476 1890 -546 213 -22 710
-25 900 -6 503 51 913 145 1360 312 640 240 1235 597 1755 1055 123 109 394
381 510 515 467 536 851 1226 1025 1846 172 608 230 1527 144 2288 -39 346
-87 563 -186 826 -250 670 -570 1224 -1019 1765 -118 142 -476 506 -619 628
-526 449 -1109 781 -1720 980 -474 154 -770 196 -1445 201 -212 2 -414 2 -450
0z m-570 -2935 c85 -13 194 -47 233 -73 57 -39 53 -96 -18 -264 -102 -242
-190 -360 -300 -401 -50 -19 -90 -24 -245 -31 -299 -13 -425 -55 -556 -186
-157 -156 -225 -392 -224 -784 0 -174 26 -830 33 -837 3 -3 334 21 442 32 91
10 246 51 314 84 90 44 175 109 277 213 165 169 230 180 537 92 146 -42 275
-102 311 -144 25 -30 25 -33 11 -68 -44 -107 -294 -422 -577 -727 l-28 -31 91
-234 c103 -266 152 -368 254 -520 148 -221 250 -331 604 -647 157 -141 286
-259 286 -262 0 -3 -115 -119 -255 -258 l-255 -251 -205 139 c-268 182 -379
271 -525 421 -258 264 -453 585 -590 968 -51 144 -115 278 -155 323 -40 46
-100 82 -160 97 -40 9 -412 51 -417 46 -1 -1 -15 -255 -31 -564 -17 -310 -31
-565 -33 -567 -5 -4 -632 -55 -686 -55 l-43 0 0 1183 c0 650 5 1283 10 1407
28 653 94 988 243 1243 96 165 355 378 602 497 292 141 733 207 1055 159z
m2131 -10 c366 -29 579 -96 821 -258 155 -104 350 -306 477 -495 97 -144 150
-278 196 -496 36 -170 46 -484 21 -664 -51 -360 -186 -667 -373 -846 -148
-143 -153 -149 -153 -183 0 -39 20 -73 92 -156 133 -152 304 -501 387 -791 47
-164 64 -272 59 -382 -4 -107 -17 -137 -75 -171 -68 -39 -473 -47 -575 -11
-93 32 -116 77 -158 307 -71 387 -166 542 -447 727 -178 117 -275 138 -335 71
-49 -55 -59 -112 -68 -391 -11 -333 -27 -457 -75 -565 -25 -55 -75 -108 -118
-124 -76 -29 -273 7 -412 76 -100 48 -148 121 -185 278 -22 92 -65 391 -75
515 -15 199 40 334 236 576 140 173 226 249 356 313 103 51 148 65 332 101 84
17 187 41 228 55 304 102 493 312 565 626 31 136 31 359 0 484 -43 171 -164
377 -282 478 -62 52 -165 113 -235 137 -34 12 -107 24 -167 29 -140 12 -214
44 -302 134 -133 136 -384 573 -349 608 5 5 29 13 54 18 64 13 402 13 560 0z"/>
</g>
</svg>
